<svg data-v-423bf9ae="" xmlns="http://www.w3.org/2000/svg" viewBox="0 0 595 91" class="iconLeft"><!----><!----><!----><g data-v-423bf9ae="" id="579133c1-6dff-467b-b562-8e3c7fb49c00" fill="#18401E" transform="matrix(5.6550420875057705,0,0,5.6550420875057705,83.01454167894127,-7.110757045433267)"><path d="M3.92 14.52C5.33 14.52 6.36 13.87 6.83 12.59L5.46 11.93C5.19 12.59 4.77 13.08 3.92 13.08C2.93 13.08 2.42 12.39 2.42 11.37L2.42 10.04C2.42 9.02 2.93 8.32 3.92 8.32C4.69 8.32 5.15 8.76 5.32 9.38L6.79 8.72C6.36 7.57 5.39 6.87 3.92 6.87C1.76 6.87 0.55 8.34 0.55 10.68C0.55 13.03 1.76 14.52 3.92 14.52ZM12.59 14.35L14.38 14.35L14.38 7.04L12.59 7.04L12.59 11.87C12.59 12.66 11.87 13.03 11.16 13.03C10.30 13.03 9.93 12.49 9.93 11.48L9.93 7.04L8.13 7.04L8.13 11.66C8.13 13.48 8.97 14.52 10.47 14.52C11.68 14.52 12.26 13.86 12.52 13.13L12.59 13.13ZM19.21 14.35L19.21 12.92L18.24 12.92L18.24 3.99L16.45 3.99L16.45 12.59C16.45 13.71 17.02 14.35 18.24 14.35ZM22.78 14.35L24.07 14.35L24.07 12.92L22.68 12.92L22.68 8.47L24.18 8.47L24.18 7.04L22.68 7.04L22.68 5.04L21.07 5.04L21.07 6.29C21.07 6.79 20.90 7.04 20.37 7.04L19.81 7.04L19.81 8.47L20.89 8.47L20.89 12.49C20.89 13.68 21.55 14.35 22.78 14.35ZM26.63 5.98C27.36 5.98 27.68 5.60 27.68 5.08L27.68 4.80C27.68 4.28 27.36 3.91 26.63 3.91C25.89 3.91 25.58 4.28 25.58 4.80L25.58 5.08C25.58 5.60 25.89 5.98 26.63 5.98ZM25.73 14.35L27.52 14.35L27.52 7.04L25.73 7.04ZM33.29 14.35L35.74 7.04L34.03 7.04L33.04 10.19L32.33 12.80L32.23 12.80L31.51 10.19L30.49 7.04L28.73 7.04L31.16 14.35ZM38.61 14.52C39.70 14.52 40.50 14.03 40.74 13.09L40.82 13.09C40.94 13.85 41.41 14.35 42.18 14.35L43.18 14.35L43.18 12.92L42.45 12.92L42.45 9.48C42.45 7.81 41.40 6.87 39.42 6.87C37.95 6.87 37.10 7.43 36.57 8.27L37.63 9.23C37.98 8.72 38.46 8.30 39.30 8.30C40.25 8.30 40.66 8.78 40.66 9.59L40.66 10.12L39.41 10.12C37.42 10.12 36.29 10.86 36.29 12.36C36.29 13.66 37.13 14.52 38.61 14.52ZM39.21 13.22C38.51 13.22 38.11 12.92 38.11 12.33L38.11 12.10C38.11 11.52 38.57 11.20 39.51 11.20L40.66 11.20L40.66 12.17C40.66 12.85 40.01 13.22 39.21 13.22ZM47.94 14.35L49.73 14.35L49.73 13.13L49.78 13.13C50.06 13.96 50.83 14.52 51.80 14.52C53.65 14.52 54.67 13.13 54.67 10.68C54.67 8.25 53.65 6.87 51.80 6.87C50.83 6.87 50.05 7.41 49.78 8.25L49.73 8.25L49.73 3.99L47.94 3.99ZM51.23 13.03C50.37 13.03 49.73 12.60 49.73 11.84L49.73 9.52C49.73 8.81 50.37 8.34 51.23 8.34C52.15 8.34 52.79 9.03 52.79 10.07L52.79 11.33C52.79 12.36 52.15 13.03 51.23 13.03ZM58.13 14.35L58.13 9.87C58.13 9.07 58.76 8.74 59.96 8.74L60.52 8.74L60.52 7.04L60.13 7.04C58.97 7.04 58.38 7.78 58.20 8.55L58.13 8.55L58.13 7.04L56.34 7.04L56.34 14.35ZM64.72 14.52C66.08 14.52 67.14 14 67.75 13.17L66.78 12.10C66.33 12.67 65.80 13.09 64.92 13.09C63.74 13.09 63.14 12.38 63.14 11.33L63.14 11.14L68.00 11.14L68.00 10.56C68.00 8.55 66.95 6.87 64.67 6.87C62.52 6.87 61.28 8.37 61.28 10.68C61.28 13.02 62.57 14.52 64.72 14.52ZM64.69 8.22C65.62 8.22 66.14 8.90 66.14 9.91L66.14 10.04L63.14 10.04L63.14 9.93C63.14 8.92 63.76 8.22 64.69 8.22ZM72.53 14.52C73.89 14.52 74.96 14 75.56 13.17L74.59 12.10C74.14 12.67 73.61 13.09 72.73 13.09C71.55 13.09 70.95 12.38 70.95 11.33L70.95 11.14L75.81 11.14L75.81 10.56C75.81 8.55 74.76 6.87 72.48 6.87C70.34 6.87 69.09 8.37 69.09 10.68C69.09 13.02 70.38 14.52 72.53 14.52ZM72.51 8.22C73.43 8.22 73.95 8.90 73.95 9.91L73.95 10.04L70.95 10.04L70.95 9.93C70.95 8.92 71.57 8.22 72.51 8.22ZM82.80 14.35L82.80 12.92L78.88 12.92L82.70 8.43L82.70 7.04L76.93 7.04L76.93 8.46L80.60 8.46L76.80 12.92L76.80 14.35ZM87.15 14.52C88.51 14.52 89.57 14 90.17 13.17L89.21 12.10C88.76 12.67 88.23 13.09 87.35 13.09C86.17 13.09 85.57 12.38 85.57 11.33L85.57 11.14L90.43 11.14L90.43 10.56C90.43 8.55 89.38 6.87 87.09 6.87C84.95 6.87 83.71 8.37 83.71 10.68C83.71 13.02 84.99 14.52 87.15 14.52ZM87.12 8.22C88.05 8.22 88.56 8.90 88.56 9.91L88.56 10.04L85.57 10.04L85.57 9.93C85.57 8.92 86.18 8.22 87.12 8.22Z"></path></g><!----><g data-v-423bf9ae="" id="47135ced-31fd-4971-8bab-8962c0a19b15" transform="matrix(1.0000050862630208,0,0,1.0000050862630208,-16.06249872717307,-4.00048319615113)" stroke="none" fill="#18401E"><path d="M83.062 77.302C62.657 105.493 29.92 91.555 29.92 91.555c19.861-27.257 53.142-14.253 53.142-14.253zM67.131 71.58s13.205-16.749 11.46-28.608c0 0-42.128 2.288-50.312 48.583-.001 0 8.952-20.494 38.852-19.975zM56.492 47.132S53.513 20.605 36.99 5c0 0-36.533 23.407-10.977 86.555 0 0 4.344-34.643 30.479-44.423z"></path></g><!----></svg>